<svg xmlns="http://www.w3.org/2000/svg" viewBox="0 0 900 620" role="img" aria-labelledby="title desc">
  <title id="title">Matthew smiling in his office</title>
  <desc id="desc">A warm illustrated portrait of a smiling tutor in an office with books and math notes.</desc>
  <defs>
    <linearGradient id="bg" x1="0" x2="1" y1="0" y2="1">
      <stop offset="0" stop-color="#dbe8f6"/>
      <stop offset="1" stop-color="#f7f3ea"/>
    </linearGradient>
    <linearGradient id="shirt" x1="0" x2="1" y1="0" y2="1">
      <stop offset="0" stop-color="#244b73"/>
      <stop offset="1" stop-color="#112033"/>
    </linearGradient>
    <filter id="shadow" x="-20%" y="-20%" width="140%" height="140%">
      <feDropShadow dx="0" dy="18" stdDeviation="18" flood-color="#112033" flood-opacity=".18"/>
    </filter>
  </defs>
  <rect width="900" height="620" fill="url(#bg)"/>
  <rect x="62" y="62" width="776" height="430" rx="34" fill="#fffaf0" opacity=".72"/>
  <rect x="92" y="98" width="230" height="296" rx="18" fill="#ffffff" opacity=".94"/>
  <rect x="112" y="122" width="190" height="18" rx="9" fill="#d8a23a"/>
  <rect x="112" y="166" width="150" height="14" rx="7" fill="#d9e3ef"/>
  <rect x="112" y="198" width="172" height="14" rx="7" fill="#d9e3ef"/>
  <rect x="112" y="230" width="132" height="14" rx="7" fill="#d9e3ef"/>
  <path d="M122 328h170" stroke="#244b73" stroke-width="10" stroke-linecap="round"/>
  <path d="M122 360h126" stroke="#d8a23a" stroke-width="10" stroke-linecap="round"/>
  <rect x="622" y="92" width="164" height="202" rx="16" fill="#112033" opacity=".92"/>
  <path d="M646 138h116M646 178h84M646 218h104" stroke="#f7f3ea" stroke-width="12" stroke-linecap="round"/>
  <path d="M661 268l38-44 36 28 30-50" fill="none" stroke="#d8a23a" stroke-width="10" stroke-linecap="round" stroke-linejoin="round"/>
  <g filter="url(#shadow)">
    <path d="M302 586c10-136 80-216 170-216h40c90 0 160 80 170 216z" fill="url(#shirt)"/>
    <path d="M424 374c8 42 130 42 138 0v-58H424z" fill="#e0aa7c"/>
    <ellipse cx="493" cy="254" rx="112" ry="128" fill="#edbd8e"/>
    <path d="M383 242c5-108 56-158 142-158 78 0 122 48 127 136-50-14-95-50-122-86-34 55-82 88-147 108z" fill="#2a211d"/>
    <ellipse cx="379" cy="274" rx="20" ry="34" fill="#edbd8e"/>
    <ellipse cx="607" cy="274" rx="20" ry="34" fill="#edbd8e"/>
    <circle cx="453" cy="259" r="9" fill="#112033"/>
    <circle cx="533" cy="259" r="9" fill="#112033"/>
    <path d="M455 320c25 28 55 28 80 0" fill="none" stroke="#112033" stroke-width="10" stroke-linecap="round"/>
    <path d="M425 224c25-18 55-18 78 0M513 224c25-18 56-18 80 0" fill="none" stroke="#2a211d" stroke-width="9" stroke-linecap="round"/>
    <path d="M492 268l-14 38h30" fill="none" stroke="#c9865e" stroke-width="8" stroke-linecap="round" stroke-linejoin="round"/>
    <path d="M396 586h194l-98-152z" fill="#ffffff" opacity=".95"/>
    <path d="M446 416l47 64 47-64" fill="none" stroke="#d8a23a" stroke-width="12" stroke-linecap="round" stroke-linejoin="round"/>
  </g>
</svg>
